<svg width="88" height="32" viewBox="0 0 88 32" fill="none" xmlns="http://www.w3.org/2000/svg">
<path fill-rule="evenodd" clip-rule="evenodd" d="M0 2.08696V4.17391H2.04931H4.09863V18.087V32H6.26849H8.43836V18.087V4.17391H10.4877H12.537V2.08696V0H6.26849H0V2.08696ZM16.1534 16V32H22.4219H28.6904V16V0H26.6411H24.5918V13.913V27.8261H22.5425H20.4932V13.913V0H18.3233H16.1534V16ZM33.2712 16V32H35.4411H37.611V18.087V4.17391H39.5397H41.4685V18.087V32H43.6384H45.8082V18.087V4.17391H47.8575H49.9068V18.087V32H51.9562H54.0055V16V0H43.6384H33.2712V16ZM58.5863 16V32H60.6356H62.6849V25.0435V18.087H64.7342H66.7836V25.0435V32H68.8329H70.8822V16V0H64.7342H58.5863V16ZM75.463 16V32H77.6329H79.8027V25.0435C79.8027 16.9389 79.7073 17.1617 82.1604 19.5425L83.6603 20.998V26.499V32H85.8301H88V25.571V19.142L86.397 17.5884L84.7939 16.0346L86.397 14.3453L88 12.656V6.32788V0H81.7315H75.463V16ZM66.7836 9.04348V13.913H64.7342H62.6849V9.04348V4.17391H64.7342H66.7836V9.04348ZM83.6603 7.70342V11.2329L82.2814 12.573C81.4039 13.4261 80.7028 13.913 80.3527 13.913H79.8027V9.04348V4.17391H81.7315H83.6603V7.70342Z" fill="#39423E"/>
</svg>
